<?xml version="1.0" encoding="UTF-8" standalone="no" ?>
<!DOCTYPE svg PUBLIC "-//W3C//DTD SVG 1.1//EN" "http://www.w3.org/Graphics/SVG/1.1/DTD/svg11.dtd">
<svg xmlns="http://www.w3.org/2000/svg" xmlns:xlink="http://www.w3.org/1999/xlink" version="1.1" width="1080" height="1080" viewBox="0 0 1080 1080" xml:space="preserve">
<desc>Created with Fabric.js 5.2.4</desc>
<defs>
</defs>
<rect x="0" y="0" width="100%" height="100%" fill="transparent"></rect>
<g transform="matrix(1 0 0 1 540 540)" id="1242fbe4-6b91-44be-9257-c9bfc3d07d80"  >
</g>
<g transform="matrix(1 0 0 1 540 540)" id="3de9233e-b7d7-42bc-958a-8b442514abb0"  >
<rect style="stroke: none; stroke-width: 1; stroke-dasharray: none; stroke-linecap: butt; stroke-dashoffset: 0; stroke-linejoin: miter; stroke-miterlimit: 4; fill: rgb(255,255,255); fill-rule: nonzero; opacity: 1; visibility: hidden;" vector-effect="non-scaling-stroke"  x="-540" y="-540" rx="0" ry="0" width="1080" height="1080" />
</g>
<g transform="matrix(3.16 0 0 3.16 562 610.29)"  >
<g style=""   >
		<g transform="matrix(1.46 0 0 1.46 -50.69 50.08)" id="SvgjsG5474"  >
<path style="stroke: none; stroke-width: 1; stroke-dasharray: none; stroke-linecap: butt; stroke-dashoffset: 0; stroke-linejoin: miter; stroke-miterlimit: 4; fill: rgb(5,5,5); fill-rule: nonzero; opacity: 1;" vector-effect="non-scaling-stroke"  transform=" translate(-63.43, -144.07)" d="M 17.914 148.907 z M 22.657 154.94 C 24.5109662107696 157.11495462630694 26.466820519466385 159.20095450408607 28.51799999999999 161.19099999999997 C 35.432 167.996 43.677 173.716 52.522000000000006 178.042 C 55.781000000000006 179.568 58.787000000000006 181.149 62.309000000000005 182.51 C 63.18900000000001 182.84799999999998 64.08800000000001 183.20999999999998 65.033 183.536 C 65.986 183.838 66.974 184.14000000000001 68.007 184.439 C 69.034 184.76 70.129 184.988 71.274 185.225 C 72.42 185.45499999999998 73.61 185.718 74.888 185.849 C 68.548078533154 184.51252701859843 62.36855160518961 182.50453275264928 56.45399999999999 179.85899999999998 C 50.502577926909424 177.1742833524379 44.847610964765295 173.8757481280307 39.580999999999996 170.01699999999997 C 29.033 162.28999999999996 20.011000000000003 152.36899999999997 13.421000000000003 141.02799999999996 C 13.149000000000003 140.68899999999996 12.736000000000002 140.04299999999995 12.241000000000003 139.21999999999997 L 11.445000000000004 137.87199999999996 L 10.642000000000003 136.32099999999997 C 10.108000000000002 135.24499999999998 9.493000000000002 134.15299999999996 9.022000000000002 133.09499999999997 C 8.599657628214159 132.1696439024709 8.157556371549283 131.2534340583419 7.6960000000000015 130.34699999999998 C 9.744000000000002 135.44799999999998 12.108 139.90999999999997 14.755000000000003 144.153 C 15.974251145091426 146.09887925240312 17.26479343444463 147.9991685836115 18.62400000000003 149.85000000000002 C 18.432000000000002 149.591 18.232000000000003 149.339 18.041000000000004 149.079 C 19.49753866327425 151.08527039162686 21.032046539689237 153.03376180600512 22.641000000000012 154.92000000000004 L 22.657000000000004 154.94000000000003 z M 18.039 149.078 L 17.914 148.90800000000002 L 18.039 149.078 z M 1.335 106.042 L 0.852 102.167 C 1.108 104.532 1.405 107.175 1.948 109.821 L 1.621 107.942 C 1.5003016662559965 107.31274527406677 1.4048916441307406 106.67890246973815 1.3349999999999986 106.04199999999999 z M 85.812 185.575 C 92.464 186.248 99.44 186.047 106.273 184.96599999999998 C 113.11 183.88899999999998 119.797 181.97899999999998 126.014 179.51699999999997 C 114.564 184.01999999999998 102.41199999999999 186.02299999999997 90.524 185.68799999999996 C 88.933 185.66299999999995 87.365 185.68799999999996 85.812 185.57499999999996 z" stroke-linecap="round" />
</g>
		<g transform="matrix(1.46 0 0 1.46 18.36 28.76)" id="SvgjsG5474"  >
<path style="stroke: none; stroke-width: 1; stroke-dasharray: none; stroke-linecap: butt; stroke-dashoffset: 0; stroke-linejoin: miter; stroke-miterlimit: 4; fill: rgb(5,5,5); fill-rule: nonzero; opacity: 1;" vector-effect="non-scaling-stroke"  transform=" translate(-110.87, -129.42)" d="M 46.426 171.967 L 46.167 171.80200000000002 C 46.254000000000005 171.85700000000003 46.339 171.913 46.426 171.967 z M 46.167 171.802 z M 43.653 170.135 z M 56.077 177.284 C 61.55827347597323 179.83437312447847 67.299329828777 181.78438093548746 73.20000000000002 183.10000000000002 C 63.512 180.89 54.395 176.99099999999999 46.426 171.96699999999998 C 49.486000000000004 173.914 52.703 175.71599999999998 56.077 177.284 z M 177.002 107.094 C 177.10000000000002 105.514 177.298 103.856 177.348 103.067 C 177.942 97.996 178.11800000000002 93.666 178.09300000000002 89.32199999999999 C 177.983 88.53899999999999 177.668 87.07199999999999 177.543 85.40399999999998 C 177.39000000000001 83.73199999999999 177.16500000000002 82.09499999999998 176.975 80.47999999999998 C 176.686 78.87899999999998 176.43699999999998 77.29399999999998 176.12099999999998 75.73999999999998 C 178.396 87.35699999999999 178.35799999999998 99.01899999999998 176.265 110.02199999999998 C 176.49513544478546 109.04215624365708 176.7408331541444 108.06603291529485 177.002 107.094 z" stroke-linecap="round" />
</g>
		<g transform="matrix(1.46 0 0 1.46 -7.64 -22)" id="SvgjsG5474"  >
<path style="stroke: none; stroke-width: 1; stroke-dasharray: none; stroke-linecap: butt; stroke-dashoffset: 0; stroke-linejoin: miter; stroke-miterlimit: 4; fill: rgb(5,5,5); fill-rule: nonzero; opacity: 1;" vector-effect="non-scaling-stroke"  transform=" translate(-93.01, -94.54)" d="M 0.887 83.482 C 1.7349999999999999 76.582 3.54 69.856 5.257 65.375 L 4.561999999999999 68.655 C 4.991 67.694 5.683999999999999 65.461 6.629 63.098 L 7.311 61.296 L 8.064 59.549 C 8.564 58.418 8.984 57.346 9.427 56.524 C 9.123999999999999 57.295 8.831999999999999 58.126 8.48 58.96 C 8.135 59.797000000000004 7.748 60.647 7.3790000000000004 61.502 L 8.893 58.093 C 7.3653899482757605 61.91980906320682 6.050385788276065 65.82809890862865 4.954000000000008 69.80000000000003 C 3.8209999999999997 74.152 2.925 78.726 2.4429999999999996 82.832 C 2.3029999999999995 83.856 2.2539999999999996 84.856 2.1629999999999994 85.80999999999999 C 2.095999999999999 86.76399999999998 1.9799999999999993 87.67399999999999 1.9709999999999994 88.53399999999999 C 1.9289999999999994 90.25299999999999 1.8709999999999993 91.758 1.8999999999999995 92.96199999999999 C 2.0049999999999994 95.371 2.1499999999999995 96.57199999999999 2.3589999999999995 95.90099999999998 C 2.7699999999999996 94.56799999999998 2.7619999999999996 87.71299999999998 4.196 79.13399999999999 C 4.963 74.85799999999999 6.064 70.16799999999999 7.558 65.57299999999998 C 9.041 60.973999999999975 10.985 56.51499999999998 12.998000000000001 52.580999999999975 L 12.406 53.872999999999976 L 11.861 55.20399999999998 L 10.745000000000001 57.89499999999998 L 9.721 60.67499999999998 L 9.2 62.076999999999984 C 9.046999999999999 62.55299999999998 8.892 63.030999999999985 8.738999999999999 63.51099999999998 C 7.418999999999999 67.31799999999998 6.431999999999999 71.32699999999998 5.571999999999999 75.36799999999998 L 5.012999999999999 78.41999999999999 C 4.807999999999999 79.43399999999998 4.720999999999999 80.466 4.568999999999999 81.487 C 4.2509999999999994 83.52799999999999 4.134999999999999 85.58399999999999 3.9579999999999993 87.616 C 3.7589999999999995 91.69 3.7189999999999994 95.714 4.087999999999999 99.562 C 4.0729999999999995 98.648 4.057999999999999 97.836 4.070999999999999 97.05 L 4.185999999999999 94.695 C 4.233999999999999 93.886 4.224999999999999 93.02799999999999 4.300999999999999 92.04499999999999 C 4.3709999999999996 91.06199999999998 4.435 89.954 4.491 88.64299999999999 C 4.882 82.03499999999998 6.063 75.49299999999998 7.898999999999999 69.16199999999998 C 9.649 62.80399999999998 11.713 57.20499999999998 14.788 52.13199999999998 L 15.589 50.60599999999997 C 16.131 49.58199999999997 16.582 48.571999999999974 17.155 47.54199999999997 C 17.808 46.41199999999997 18.433 45.565999999999974 18.939 44.790999999999976 C 19.46 44.02399999999997 19.902 43.34999999999997 20.408 42.69599999999998 L 24.09 37.613999999999976 C 24.165 37.604999999999976 24.068 37.79899999999998 23.89 38.086999999999975 C 24.497078688457794 37.221878079703956 25.151056948208513 36.39063465613106 25.848999999999997 35.59699999999998 C 26.604 34.72199999999997 27.337 33.793999999999976 27.958 33.02799999999997 C 28.104 33.02099999999997 28.246 33.01699999999997 28.581 32.77699999999997 C 37.231 23.579999999999973 47.876000000000005 16.084999999999972 59.872 11.359999999999971 L 62.539 10.320999999999971 L 65.239 9.421999999999972 L 66.58200000000001 8.973999999999972 L 67.94200000000001 8.593999999999971 L 70.652 7.840999999999971 C 72.202 7.467999999999971 73.772 7.0899999999999705 75.373 6.749999999999971 L 77.81 6.3239999999999705 C 78.629 6.1829999999999705 79.452 6.023999999999971 80.294 5.94599999999997 C 81.968 5.744999999999971 83.428 5.32099999999997 84.215 5.21699999999997 C 88.584 4.967999999999971 92.94500000000001 5.0179999999999705 98.06400000000001 5.4329999999999705 C 98.46100000000001 5.43999999999997 99.07900000000001 5.475999999999971 99.796 5.51499999999997 C 100.513 5.555999999999971 101.33300000000001 5.57599999999997 102.128 5.648999999999971 C 103.06 5.858999999999971 104.055 6.066999999999971 105.099 6.269999999999971 C 111.468 7.257999999999971 117.626 9.02399999999997 123.485 11.372999999999971 L 123.478 11.34499999999997 L 125.722 12.23899999999997 L 128.012 13.29699999999997 C 129.583 13.98099999999997 131.122 14.85599999999997 132.712 15.679999999999971 C 133.51 16.08699999999997 134.266 16.58399999999997 135.04999999999998 17.03399999999997 C 135.82 17.50799999999997 136.62599999999998 17.92799999999997 137.36999999999998 18.44599999999997 C 138.878 19.44799999999997 140.40699999999998 20.406999999999968 141.81599999999997 21.47799999999997 C 144.08790519128922 23.11736545140426 146.28985126025322 24.851564794809537 148.41599999999997 26.675999999999963 C 148.46199999999996 26.71799999999997 148.50999999999996 26.75699999999997 148.55599999999995 26.79799999999997 L 148.59799999999996 26.83599999999997 L 150.05499999999995 28.15799999999997 L 151.44899999999996 29.54899999999997 L 152.84399999999997 30.94099999999997 C 153.30599999999995 31.40799999999997 153.73399999999995 31.90799999999997 154.18099999999995 32.38999999999997 C 153.96499999999995 32.03999999999997 153.97299999999996 31.898999999999972 153.98099999999997 31.759999999999973 C 153.29199999999997 31.099999999999973 152.47699999999998 30.318999999999974 151.67199999999997 29.549999999999972 C 153.01499999999996 30.771999999999974 154.18699999999995 31.876999999999974 155.14899999999997 32.778999999999975 C 155.51999999999998 33.25299999999997 155.92499999999998 33.71899999999997 156.30899999999997 34.22799999999997 L 157.49499999999998 35.793999999999976 L 158.75599999999997 37.42299999999997 L 160.01099999999997 39.174999999999976 C 162.23699999999997 42.01299999999998 164.20199999999997 45.04899999999998 166.06799999999996 48.144999999999975 C 166.93199999999996 49.732999999999976 167.88499999999996 51.275999999999975 168.65399999999997 52.918999999999976 L 169.86699999999996 55.354999999999976 L 170.95899999999997 57.851999999999975 C 171.27299999999997 58.38499999999998 171.15099999999998 57.873999999999974 171.18999999999997 57.78399999999998 C 172.41499999999996 60.74599999999998 173.39999999999998 63.82599999999998 174.29199999999997 66.92999999999998 C 175.99713317313604 72.53948991881335 177.1387786908332 78.30500077711318 177.69999999999993 84.14099999999996 C 177.92499999999995 85.51899999999998 178.02099999999996 86.91299999999998 178.21999999999997 88.29399999999998 L 178.09699999999998 91.21799999999999 C 178.09599999999998 92.32099999999998 178.15399999999997 93.42399999999999 178.10699999999997 94.529 L 177.97899999999998 97.85499999999999 C 177.963 98.60499999999999 177.855 99.42399999999999 177.79199999999997 100.314 C 177.70799999999997 101.202 177.664 102.16 177.53599999999997 103.16999999999999 L 177.12399999999997 106.362 C 176.99199999999996 107.481 176.73699999999997 108.631 176.54099999999997 109.833 C 175.5649460352042 115.1111696512778 174.12194133328757 120.29219905644321 172.22899999999993 125.315 C 171.98699999999997 126.14099999999999 171.80199999999996 126.801 171.63699999999994 127.17 C 171.00999999999993 128.671 170.34099999999995 130.124 169.69499999999994 131.555 C 168.97199999999992 132.949 168.30899999999994 134.34300000000002 167.56799999999993 135.663 C 165.2763956305053 140.0085827501351 162.61702173272658 144.1500331817117 159.61899999999991 148.042 C 159.2829999999999 148.481 158.9699999999999 148.927 158.63199999999992 149.339 L 157.63399999999993 150.545 C 156.97399999999993 151.32399999999998 156.38399999999993 152.10299999999998 155.75799999999992 152.779 C 154.50699999999992 154.131 153.45699999999994 155.385 152.47199999999992 156.328 C 151.34399999999994 157.506 151.44499999999994 157.561 152.2259999999999 156.993 C 152.77414824207017 156.58804666452167 153.31037595527027 156.16720128264444 153.83399999999995 155.731 L 155.9559999999999 153.817 C 156.7319999999999 153.14000000000001 157.4749999999999 152.376 158.19099999999992 151.656 C 158.89899999999992 150.931 159.6069999999999 150.27 160.1529999999999 149.672 C 161.2539999999999 148.481 161.97699999999992 147.746 161.8229999999999 148.073 C 160.0459999999999 151.418 156.8099999999999 155.544 152.0799999999999 160.108 C 149.6669999999999 162.335 146.95199999999988 164.755 143.7409999999999 167.088 C 142.1749999999999 168.309 140.4339999999999 169.426 138.6589999999999 170.646 C 136.8249999999999 171.76899999999998 134.9509999999999 172.999 132.9019999999999 174.09099999999998 C 128.4179999999999 176.533 136.2669999999999 172.61599999999999 136.4789999999999 172.57899999999998 C 135.72200687421164 173.17519582253541 134.92809118399924 173.7229542289083 134.1019999999999 174.21899999999997 C 132.62399999999988 175.00499999999997 131.15899999999988 175.81599999999997 129.6279999999999 176.49199999999996 C 128.7329999999999 176.90299999999996 127.8539999999999 177.34699999999995 126.9489999999999 177.73099999999997 L 124.2199999999999 178.85299999999998 L 125.6639999999999 178.28499999999997 C 128.6159999999999 177.11199999999997 131.37499999999991 175.72999999999996 133.8659999999999 174.36299999999997 C 132.9299999999999 174.92899999999997 131.9059999999999 175.58399999999997 130.7839999999999 176.17499999999998 C 129.5809999999999 176.797 128.3359999999999 177.47699999999998 127.0869999999999 178.08399999999997 L 123.4619999999999 179.76999999999998 C 136.4299999999999 175.05899999999997 148.3469999999999 167.26299999999998 157.7809999999999 157.09999999999997 C 162.5039999999999 152.03399999999996 166.7159999999999 146.46899999999997 170.1499999999999 140.44899999999996 C 173.60530668317438 134.44124961594238 176.38490289872038 128.06944115803225 178.43799999999987 121.44999999999993 C 175.2839999999999 131.37999999999997 170.3669999999999 140.50199999999995 164.4569999999999 148.21499999999997 C 175.2009999999999 133.70799999999997 181.6069999999999 115.92199999999997 182.4559999999999 97.57899999999998 C 182.4549999999999 98.58999999999997 182.3549999999999 99.59699999999998 182.2879999999999 100.60399999999998 C 182.2049999999999 101.61099999999999 182.1649999999999 102.62199999999999 182.04699999999988 103.62599999999999 C 181.78999999999988 105.63099999999999 181.60599999999988 107.64699999999999 181.21999999999989 109.63499999999999 C 180.5959999999999 113.63499999999999 179.5839999999999 117.56599999999999 178.43799999999987 121.44999999999999 C 180.69999999999987 114.42899999999999 182.05099999999987 107.02599999999998 182.58299999999988 99.58099999999999 C 183.1369999999999 92.13 182.6749999999999 84.63399999999999 181.5259999999999 77.36999999999999 C 183.4999999999999 86.99199999999999 183.82699999999988 97.89399999999999 182.1449999999999 108.66799999999999 C 183.32699999999988 101.719 183.6269999999999 94.556 183.1729999999999 87.454 C 183.07099999999988 84.741 182.7509999999999 82.047 182.4879999999999 79.553 C 182.11099999999988 77.077 181.82599999999988 74.791 181.4609999999999 72.942 C 182.9059999999999 79.76799999999999 183.47599999999989 85.58999999999999 183.7539999999999 91.07799999999999 C 183.4869999999999 79.10099999999998 181.00599999999991 66.966 176.1339999999999 55.566999999999986 C 178.7929999999999 61.75799999999999 180.9759999999999 68.41799999999999 182.3089999999999 75.26499999999999 C 183.64899999999992 82.10499999999999 184.2059999999999 89.10299999999998 183.88899999999992 95.83499999999998 C 183.87399999999994 95.04699999999998 183.90699999999993 94.25999999999998 183.86099999999993 93.46899999999998 L 183.75399999999993 91.07799999999997 C 184.04099999999994 101.92799999999997 182.36999999999995 112.68199999999997 179.05799999999994 122.79499999999997 C 177.39599999999993 127.85099999999997 175.34299999999993 132.76399999999998 172.85799999999995 137.43899999999996 C 170.37800917800087 142.10685998258367 167.51484654928464 146.56081717463803 164.29799999999994 150.75499999999997 C 167.97099999999995 146.46499999999997 171.84899999999993 140.40099999999995 174.94399999999996 133.73999999999995 C 178.02499999999995 127.06499999999996 180.31199999999995 119.84599999999995 181.88499999999996 113.54099999999995 C 179.57099999999997 124.86299999999996 174.97799999999995 136.03499999999997 168.31399999999996 146.01199999999994 C 161.66799999999998 155.99699999999996 152.96299999999997 164.77599999999995 142.89099999999996 171.51399999999995 C 132.83099999999996 178.27299999999997 121.41699999999996 182.95099999999996 109.70399999999997 185.26199999999994 C 103.88802765401678 186.4169931068402 97.97635126668999 187.0226578621596 92.04699999999997 187.07099999999997 C 86.22568041003001 187.10203133024297 80.41395480327196 186.59487366108576 74.68599999999995 185.55599999999995 L 77.69099999999996 186.12699999999995 C 78.69299999999996 186.31699999999995 79.70899999999996 186.42199999999994 80.71699999999996 186.57199999999995 C 82.73299999999996 186.89599999999996 84.77199999999996 187.01799999999994 86.80399999999996 187.20499999999996 C 90.87699999999995 187.43399999999997 94.97199999999995 187.51099999999997 99.05399999999996 187.19999999999996 C 103.14299999999996 186.98299999999995 107.20599999999996 186.37299999999996 111.24999999999996 185.62799999999996 C 113.25599999999996 185.17199999999997 115.28599999999996 184.79899999999995 117.26699999999995 184.21399999999997 C 118.26099999999995 183.93599999999998 119.26699999999995 183.69299999999998 120.25399999999995 183.38399999999996 L 123.20899999999995 182.42599999999996 C 121.71699999999994 182.88799999999995 120.14699999999995 183.49999999999997 118.46999999999994 183.94899999999996 L 116.36899999999994 184.56699999999995 C 120.77812563058137 183.39137850261844 125.09342828344127 181.88854343466662 129.27899999999994 180.07099999999997 C 131.1936712841833 179.23558843671583 133.07849345483694 178.33336865762928 134.92999999999998 177.36599999999993 C 131.46095408335475 179.20613977740078 127.88298870138998 180.83315558297596 124.21599999999995 182.23799999999994 C 117.22345902937681 184.84758974348864 109.95673540787557 186.65319946329103 102.55599999999995 187.61999999999995 C 101.44599999999996 187.79599999999994 100.43399999999995 187.85099999999994 99.52699999999996 187.94599999999994 L 97.09899999999996 188.18599999999995 C 95.66999999999996 188.29899999999995 94.61499999999997 188.34999999999994 93.87699999999997 188.43099999999995 C 92.39999999999996 188.57799999999995 92.18999999999997 188.71499999999995 92.77799999999996 188.82799999999995 C 93.36499999999997 188.94099999999995 94.74899999999997 189.03099999999995 96.45099999999996 189.07899999999995 C 98.14799999999997 189.06899999999996 100.16099999999996 188.97799999999995 101.99199999999996 188.81099999999995 C 120.38899999999995 186.92399999999995 137.27999999999997 179.70399999999995 150.81599999999997 168.89499999999995 C 164.36099999999996 158.08399999999995 174.73499999999999 143.72299999999996 180.51699999999997 127.42799999999995 C 180.87999999999997 126.48199999999996 181.15899999999996 125.50599999999996 181.46099999999996 124.53799999999995 C 181.75399999999996 123.56699999999995 182.07799999999995 122.60599999999995 182.34299999999996 121.62599999999995 C 182.83399999999997 119.65599999999995 183.41499999999996 117.70899999999995 183.79099999999997 115.70899999999995 L 184.40999999999997 112.72399999999995 L 184.89699999999996 109.71199999999995 L 185.13799999999998 108.20499999999994 L 185.30999999999997 106.68799999999995 L 185.652 103.65399999999994 C 186.35 95.53999999999994 186.07399999999998 87.33899999999994 184.83999999999997 79.29099999999994 C 184.17999999999998 74.73699999999994 183.01999999999998 69.32999999999994 181.52499999999998 64.51399999999994 L 180.37499999999997 61.02999999999994 C 179.97499999999997 59.92299999999994 179.54999999999998 58.878999999999934 179.17199999999997 57.896999999999935 L 178.61499999999998 56.481999999999935 L 178.04399999999998 55.210999999999935 L 177.063 53.08699999999993 C 173.929 46.72799999999993 169.99099999999999 40.66299999999993 165.381 35.021999999999935 C 160.776 29.378999999999934 155.485 24.153999999999932 149.52 19.603999999999935 L 147.276 17.900999999999936 L 144.949 16.292999999999935 L 143.78300000000002 15.486999999999934 L 142.58 14.730999999999934 L 140.163 13.222999999999935 C 136.86800000000002 11.318999999999935 133.49300000000002 9.483999999999934 129.935 7.961999999999935 C 126.414 6.363999999999935 122.729 5.0669999999999344 118.97800000000001 3.906999999999935 C 117.08300000000001 3.386999999999935 115.197 2.806999999999935 113.254 2.407999999999935 C 112.286 2.198999999999935 111.32600000000001 1.944999999999935 110.34700000000001 1.7699999999999352 L 107.403 1.2489999999999353 C 100.363 0.01 93.04 -0.285 85.724 0.265 C 78.412 0.83 71.069 2.218 64.028 4.614 L 61.39300000000001 5.527 C 60.51200000000001 5.824 59.66300000000001 6.2090000000000005 58.79600000000001 6.546 C 57.93800000000001 6.905 57.06100000000001 7.219 56.21900000000001 7.615 L 53.68700000000001 8.788 C 52.835000000000015 9.164 52.012000000000015 9.596 51.19100000000001 10.033000000000001 L 48.72200000000001 11.330000000000002 L 46.32000000000001 12.742 C 45.52000000000001 13.214 44.714000000000006 13.675 43.94800000000001 14.200000000000001 L 41.62400000000001 15.728000000000002 C 40.84200000000001 16.225 40.11800000000001 16.806 39.36300000000001 17.340000000000003 C 38.62200000000001 17.894000000000002 37.85300000000001 18.410000000000004 37.13700000000001 18.994000000000003 L 34.980000000000004 20.731 C 34.251000000000005 21.296000000000003 33.563 21.909000000000002 32.877 22.523000000000003 L 30.814000000000004 24.353 L 28.843000000000004 26.272000000000002 C 28.187000000000005 26.911 27.524000000000004 27.543000000000003 26.913000000000004 28.223000000000003 C 21.882000000000005 33.521 17.462000000000003 39.301 13.847000000000003 45.417 C 10.302058144114026 51.416777809113704 7.3971209905435025 57.77231240078379 5.18000000000003 64.37899999999999 C 0.805 77.299 -0.45 90.402 0.134 102.237 C 0.008000000000000007 97.365 -0.012999999999999984 90.378 0.887 83.482 z M 142.019 173.928 C 145.05777011309758 171.9638095178248 147.9840285614959 169.8307958011315 150.784 167.539 C 147.944 169.878 145.02599999999998 172.03799999999998 142.019 173.928 z M 182.236 119.646 C 181.93699999999998 120.547 181.684 121.437 181.35399999999998 122.287 L 180.397 124.81 L 179.93099999999998 126.058 L 179.41799999999998 127.289 C 179.07533925455462 128.118512583152 178.7429803579525 128.95224337593228 178.42099999999994 129.79000000000005 C 176.5694477733716 134.4016709647029 174.3673386268715 138.8647280628927 171.83399999999995 143.14 C 169.313 147.415 166.39099999999996 151.421 163.26899999999998 155.17999999999998 C 161.72699999999998 157.07899999999998 160.04699999999997 158.83999999999997 158.39499999999998 160.60099999999997 L 155.814 163.12399999999997 C 154.96699999999998 163.97199999999998 154.04 164.72799999999998 153.162 165.52799999999996 C 152.42600000000002 166.16799999999995 151.684 166.79399999999995 150.937 167.40999999999997 C 153.7114092139796 165.1311038519421 156.34804943981626 162.689473490833 158.83300000000003 160.09799999999996 C 155.23766843420168 163.82463773056787 151.3267622663309 167.23333924808585 147.144 170.28599999999994 C 146.108 171.00799999999995 145.107 171.78199999999995 144.031 172.46199999999993 L 140.784 174.53099999999992 L 137.35399999999998 176.47999999999993 C 136.18699999999998 177.12799999999993 134.95499999999998 177.70399999999992 133.72 178.33499999999992 C 134.6044723711828 177.8138145271849 135.49966508262307 177.31103962630888 136.40499999999997 176.8269999999999 C 137.426 176.2599999999999 138.497 175.58999999999992 139.543 174.97699999999992 C 140.597 174.37599999999992 141.555 173.71599999999992 142.351 173.16399999999993 C 143.147 172.61199999999994 143.771 172.15399999999994 144.096 171.85799999999992 C 143.632 172.17299999999992 143.16 172.4749999999999 142.69 172.78199999999993 C 143.19564499361596 172.44860974322873 143.69800256719813 172.11026008351678 144.197 171.76699999999994 C 144.17600000000002 171.78999999999994 144.132 171.82599999999994 144.096 171.85799999999995 C 155.028 164.39199999999994 164.341 154.58099999999996 171.31900000000002 143.39599999999996 C 178.32800000000003 132.22099999999995 182.889 119.61499999999995 184.77900000000002 106.79499999999996 C 184.36900000000003 111.93699999999995 183.42700000000002 116.04299999999996 182.23600000000002 119.64599999999996 z M 175.582 54.294 z M 167.134 41.596 C 170.14341764457552 46.14126491264527 172.744569578969 50.94400935654281 174.90699999999993 55.94799999999995 C 175.15699999999998 56.49699999999999 175.39299999999997 57.053999999999995 175.62599999999998 57.611999999999995 C 180.58899999999997 69.76599999999999 182.84699999999998 82.804 182.51599999999996 95.648 C 182.59999999999997 91.398 182.31799999999996 87.14999999999999 181.84699999999995 82.93799999999999 C 181.31399999999996 78.08399999999999 180.32899999999995 73.28799999999998 179.02299999999994 68.597 C 176.46099999999993 59.19 172.29999999999993 50.273999999999994 167.01799999999994 42.145999999999994 C 167.50299999999996 42.815999999999995 168.01399999999995 43.541999999999994 168.54299999999995 44.31199999999999 C 169.1094148611256 45.10891183013153 169.63994379613763 45.93073118040489 170.13299999999995 46.77499999999998 L 169.49499999999995 45.66599999999999 L 168.80599999999995 44.58699999999999 L 167.42799999999997 42.43099999999999 C 166.48999999999998 41.00699999999999 165.47299999999996 39.63499999999999 164.49399999999997 38.23899999999999 C 163.43199999999996 36.90499999999999 162.42499999999998 35.52699999999999 161.31999999999996 34.22799999999999 C 160.48399999999995 33.274999999999984 159.68299999999996 32.289999999999985 158.83499999999995 31.348999999999986 C 161.82699999999994 34.503999999999984 164.63599999999994 37.88899999999999 167.13399999999996 41.59599999999999 z M 96.886 1.152 C 98.353 1.23 99.823 1.373 101.29299999999999 1.4829999999999999 C 102.49699999999999 1.5839999999999999 103.695 1.762 104.88099999999999 1.896 C 105.23699999999998 1.9109999999999998 105.61299999999999 1.9349999999999998 106.08499999999998 1.988 C 106.55599999999998 2.053 107.11899999999999 2.174 107.85399999999998 2.342 C 113.32299999999998 3.254 118.31299999999999 4.625 121.85499999999999 6.041 C 128.653 8.614 134.97799999999998 11.815000000000001 140.71499999999997 15.512 C 146.45399999999998 19.202 151.60399999999998 23.399 155.96099999999998 27.983 C 157.969 30.162 157.38299999999998 29.687 156.27599999999998 28.629 L 157.938 30.393 C 157.202 29.659 156.47899999999998 28.915 155.732 28.197 L 153.431 26.107 C 153.991 26.596999999999998 155.34900000000002 27.77 156.276 28.628999999999998 C 148.887 21.089999999999996 140.25 14.829999999999998 130.901 10.224999999999998 C 121.54500000000002 5.621999999999998 111.47000000000001 2.778999999999998 101.39900000000002 1.6439999999999984 C 103.01700000000001 1.8239999999999983 103.81100000000002 1.8639999999999983 104.56700000000002 1.8839999999999983 C 103.48200000000003 1.7569999999999983 102.39400000000002 1.5829999999999984 101.29300000000002 1.4829999999999983 C 99.81400000000002 1.3859999999999983 98.33800000000002 1.2539999999999982 96.87000000000002 1.1819999999999984 L 92.51000000000002 1.0789999999999984 C 93.95400000000002 1.0779999999999985 95.41700000000002 1.1179999999999983 96.88600000000002 1.1519999999999984 z" stroke-linecap="round" />
</g>
		<g transform="matrix(1.46 0 0 1.46 7 68.23)" id="SvgjsG5474"  >
<path style="stroke: none; stroke-width: 1; stroke-dasharray: none; stroke-linecap: butt; stroke-dashoffset: 0; stroke-linejoin: miter; stroke-miterlimit: 4; fill: rgb(5,5,5); fill-rule: nonzero; opacity: 1;" vector-effect="non-scaling-stroke"  transform=" translate(-103.07, -156.53)" d="M 115.942 184.69 L 116.368 184.565 C 115.922 184.685 115.48299999999999 184.817 115.03399999999999 184.931 C 115.338 184.85500000000002 115.64299999999999 184.781 115.942 184.69 z M 160.424 146.151 C 164.65900000000002 140.56400000000002 168.401 133.888 170.79000000000002 128.137 L 170.76100000000002 128.143 C 164.70000000000002 142.465 154.86900000000003 154.803 142.60100000000003 163.887 C 144.77920009807832 162.37307474103764 146.91920229830023 160.80491794022055 149.019 159.18399999999997 C 151.71700000000004 156.364 156.23200000000003 151.778 160.42400000000004 146.151 z M 35.35 162.846 C 42.522 169.258 51.171 174.838 60.798 178.597 C 64.552 180.01000000000002 68.383 181.24800000000002 72.301 182.12 C 74.245 182.622 76.23 182.93200000000002 78.2 183.30100000000002 C 79.187 183.47600000000003 80.187 183.573 81.179 183.71300000000002 C 82.173 183.842 83.165 183.98800000000003 84.166 184.04600000000002 C 79.64699999999999 183.54500000000002 75.161 182.79500000000002 70.794 181.60600000000002 C 66.42999999999999 180.42100000000002 62.152 178.95600000000002 58.025 177.157 C 53.919416632782074 175.3292491524503 49.945254481317576 173.2195417517149 46.131000000000014 170.84300000000002 C 42.345 168.43500000000003 38.755 165.746 35.35 162.846 z M 123.877 174.277 L 121.658 175.148 L 119.392 175.904 C 117.892 176.444 116.345 176.84799999999998 114.80199999999999 177.277 C 116.353 176.887 117.913 176.523 119.42599999999999 176.023 L 121.70899999999999 175.325 L 123.939 174.51 C 123.853 174.46599999999998 123.345 174.565 123.877 174.277 z M 97.683 179.965 C 96.52300000000001 180.064 95.35700000000001 180.055 94.18900000000001 180.067 C 93.021 180.08100000000002 91.85100000000001 180.106 90.68 180.029 L 92.256 180.177 C 92.738 180.208 93.172 180.245 93.551 180.29 C 94.932 180.172 96.303 180.13899999999998 97.683 179.965 z M 51.441 169.209 C 52.782000000000004 169.996 54.206 170.689 55.619 171.453 C 55.973 171.647 56.615 171.868 57.42 172.162 C 55.699 171.423 54.050000000000004 170.507 52.374 169.657 C 51.544000000000004 169.216 50.745000000000005 168.722 49.931000000000004 168.262 C 49.11900000000001 167.798 48.31 167.335 47.542 166.817 L 48.479 167.443 L 49.455999999999996 168.02700000000002 L 51.440999999999995 169.209 z" stroke-linecap="round" />
</g>
		<g transform="matrix(3.24 0 0 3.24 -7.38 -21.12)" id="SvgjsG5475"  >
<path style="stroke: none; stroke-width: 1; stroke-dasharray: none; stroke-linecap: butt; stroke-dashoffset: 0; stroke-linejoin: miter; stroke-miterlimit: 4; fill: rgb(5,5,5); fill-rule: nonzero; opacity: 1;" vector-effect="non-scaling-stroke"  transform=" translate(-17.63, -46.74)" d="M 13.2 26.46 C 11.52 30.3 7.319999999999999 43.08 5.039999999999999 51.66 C 2.879999999999999 59.64 1.6199999999999992 66.72 1.4999999999999991 70.74 C 1.439999999999999 72.42 1.3199999999999992 75.17999999999999 2.8199999999999994 75.17999999999999 C 5.279999999999999 75.17999999999999 13.559999999999999 69.41999999999999 22.32 54.71999999999999 C 31.259999999999998 39.65999999999999 34.019999999999996 26.819999999999993 33.78 20.93999999999999 C 33.660000000000004 19.25999999999999 33.24 18.41999999999999 32.4 18.41999999999999 C 31.979999999999997 18.41999999999999 31.439999999999998 19.019999999999992 31.2 19.379999999999992 C 30.96 19.73999999999999 30.84 20.039999999999992 30.66 20.039999999999992 C 30.24 20.039999999999992 30.18 19.43999999999999 30.48 18.89999999999999 C 30.900000000000002 17.999999999999993 31.5 17.519999999999992 32.52 17.45999999999999 C 34.080000000000005 17.45999999999999 35.1 19.19999999999999 35.160000000000004 20.69999999999999 C 35.760000000000005 28.61999999999999 30.360000000000003 44.93999999999998 23.640000000000004 55.499999999999986 C 17.100000000000005 65.82 7.800000000000004 76.01999999999998 2.820000000000004 76.01999999999998 C 0.7200000000000037 76.01999999999998 -0.059999999999996056 73.73999999999998 0.06000000000000405 70.97999999999998 C 0.30000000000000404 66.23999999999998 1.6800000000000042 58.31999999999998 3.600000000000004 51.059999999999974 C 5.520000000000004 43.739999999999974 10.140000000000004 30.719999999999974 11.820000000000004 26.819999999999975 C 12.600000000000003 25.079999999999977 13.440000000000005 25.919999999999977 13.200000000000003 26.459999999999976 z" stroke-linecap="round" />
</g>
</g>
</g>
</svg>